# xmcd
#
# Track frame offsets: 
#        150
#        18450
#        39067
#        55465
#        68807
#        88155
#        103125
#        120122
#        135745
#        144032
#        159730
#        173910
#
# Disc length: 2544 seconds
#
# Revision: 5
# Processed by: cddbd v1.5.2PL0 Copyright (c) Steve Scherf et al.
# Submitted via: ExactAudioCopy v1.0b1
#
DISCID=9909ee0c
DTITLE=Steve Wariner - No More Mr. Nice Guy
DYEAR=1996
DGENRE=Country
TTITLE0=No More Mr. Nice Guy
TTITLE1=Big Hero, Little Hero
TTITLE2=Practice Your Scales Somewhere Else
TTITLE3=The Theme
TTITLE4=Forever Loving You
TTITLE5=Next March
TTITLE6=If You Can't Say Something Good
TTITLE7=Hap Towne Breakdowne
TTITLE8=For Chester B.
TTITLE9=The Brickyard Boogie
TTITLE10=Don't Call Me Ray
TTITLE11=Guitar Talk
EXTD=
EXTT0=
EXTT1=
EXTT2=
EXTT3=
EXTT4=
EXTT5=
EXTT6=
EXTT7=
EXTT8=
EXTT9=
EXTT10=
EXTT11=
PLAYORDER=
